<svg width="27" height="19" viewBox="0 0 27 19" fill="none" xmlns="http://www.w3.org/2000/svg">
<path d="M1.07989 15.6207C1.09759 15.5716 1.10487 15.513 1.13478 15.475C1.26024 15.3156 1.29614 15.1082 1.39541 14.9343C1.45622 14.8278 1.5065 14.7315 1.61842 14.6651C1.86068 14.5212 1.95967 14.2294 2.14507 14.027C2.32433 13.8312 2.4236 13.5664 2.69336 13.4398C2.88074 13.3519 3.01013 13.1216 3.16543 12.9549C3.22798 12.8878 3.29053 12.8207 3.35308 12.7535C3.48336 12.6137 3.61092 12.4708 3.74534 12.3357C3.79438 12.2864 3.76839 12.2665 3.73626 12.2329C3.50786 11.9944 3.29158 11.7453 3.01426 11.5621C2.86895 11.4661 2.76578 11.2986 2.63754 11.1704C2.49871 11.0315 2.3492 10.9049 2.21176 10.7646C2.15166 10.7033 2.11353 10.6179 2.05902 10.5493C1.99629 10.4703 1.92668 10.3976 1.85969 10.3226C1.81239 10.2696 1.76282 10.2188 1.71773 10.1638C1.70235 10.145 1.70235 10.0997 1.68715 10.0946C1.44338 10.0129 1.393 9.79282 1.3576 9.56538C1.32633 9.36439 1.2405 9.20598 1.07903 9.09481C1.0469 9.07269 1.05174 9.06613 1.10625 9.01151C1.11794 8.99979 1.13309 8.98068 1.13156 8.96691C1.11955 8.85854 1.01269 8.79437 0.936145 8.85826C0.878327 8.90652 0.868466 8.8945 0.867813 8.82837C0.866334 8.67882 0.856787 8.54072 0.770173 8.4037C0.728829 8.33829 0.813654 8.19036 0.781181 8.1067C0.743428 8.00945 0.626574 7.95093 0.569754 7.85758C0.536785 7.80341 0.526159 7.69614 0.554747 7.64371C0.622875 7.51876 0.598408 7.39149 0.600809 7.26498C0.604468 7.07207 0.628249 6.89045 0.736402 6.72543C0.771407 6.67202 0.773628 6.58762 0.77585 6.51685C0.782836 6.29442 0.982999 6.14772 0.974208 5.92055C0.973904 5.91272 0.978595 5.89979 0.984129 5.89728C1.3451 5.73309 1.4009 5.29424 1.66432 5.02877C1.97873 4.71191 2.31744 4.43714 2.65669 4.15833C2.67654 4.14202 2.69797 4.11498 2.71874 4.1149C2.99103 4.11389 3.17515 3.91667 3.38481 3.77581C3.55991 3.65817 3.78336 3.62684 3.91594 3.43312C4.21485 3.37275 4.44131 3.14374 4.71773 3.0359C4.84972 2.9844 5.03668 3.03866 5.13386 2.95654C5.23522 2.8709 5.3351 2.75038 5.45028 2.75516C5.70659 2.76579 5.92161 2.61672 6.15566 2.58794C6.40848 2.55687 6.55391 2.39298 6.63496 2.2058C6.75318 1.93274 6.92937 1.69839 7.03767 1.41701C7.10513 1.24174 7.29995 1.12212 7.44017 0.980444C7.48286 0.937324 7.5411 0.910857 7.58029 0.865018C7.87496 0.520474 8.27163 0.392499 8.66146 0.226021C8.94933 0.103081 9.24886 0.11274 9.538 0.02817C9.81633 -0.0532431 10.1193 0.0511781 10.3818 0.221268C10.4433 0.261095 10.5229 0.267114 10.591 0.297007C10.7272 0.356764 10.86 0.425288 10.9965 0.484082C11.0605 0.511656 11.1133 0.607002 11.1992 0.532592C11.3115 0.642444 11.4354 0.741747 11.5326 0.865237C11.6223 0.979011 11.6877 1.08207 11.8528 1.1031C12.0384 1.12674 12.1633 1.30663 12.2665 1.45942C12.4839 1.7812 12.7349 2.02386 13.1206 2.0647C13.1747 2.07043 13.2253 2.1122 13.2778 2.13687C13.4013 2.19503 13.5258 2.23364 13.6652 2.23673C13.897 2.24184 14.1281 2.27659 14.3599 2.28609C14.421 2.28859 14.5114 2.26449 14.5409 2.21795C14.6804 1.99856 14.8841 1.90216 15.1081 1.83395C15.1158 1.8316 15.1249 1.82801 15.1297 1.82177C15.3364 1.5526 15.6721 1.51999 15.921 1.32472C16.0731 1.20532 16.2613 1.13663 16.4061 1.00951C16.4935 0.93278 16.5724 0.926232 16.6671 0.922147C16.8202 0.915544 16.9706 0.915293 17.1255 0.879375C17.2291 0.855379 17.3449 0.784283 17.4815 0.855452C17.5817 0.907675 17.7248 0.86056 17.8482 0.868328C17.8948 0.871259 17.9566 0.889841 17.9827 0.92552C18.1538 1.15964 18.4268 1.15715 18.6524 1.25789C18.8512 1.34667 19.0292 1.43798 19.1739 1.62082C19.3412 1.83214 19.5436 2.00994 19.6947 2.24C19.7568 2.33447 19.8141 2.40712 19.7679 2.53565C19.7437 2.6028 19.7317 2.71292 19.8736 2.69593C19.9026 2.69247 19.9636 2.77774 19.9714 2.8289C20.0068 3.05845 20.1024 3.29047 19.9753 3.52159C20.0939 3.6358 19.9371 3.78621 20.0195 3.91181C20.0389 3.94142 20.007 4.01198 19.995 4.06267C19.9693 4.17083 20.0019 4.2684 20.0168 4.37391C20.0622 4.69651 20.3412 4.8712 20.41 5.17161C20.4224 5.22555 20.4924 5.26612 20.5395 5.30807C20.5571 5.32374 20.5935 5.31798 20.6074 5.33508C20.9062 5.70314 21.2496 6.03079 21.4905 6.45151C21.4991 6.46654 21.5153 6.4839 21.5132 6.49755C21.47 6.77787 21.6144 6.98447 21.7555 7.18739C21.8286 7.29246 21.9282 7.37579 22.009 7.47528C22.0627 7.54133 22.1017 7.62087 22.1524 7.69006C22.186 7.73596 22.2303 7.77264 22.267 7.81622C22.3634 7.93075 22.4751 8.03549 22.5503 8.16455C22.7157 8.44865 22.8824 8.73005 23.0983 8.97378C23.1644 9.04845 23.2166 9.1128 23.2203 9.23608C23.2261 9.4242 23.2878 9.60817 23.4361 9.73494C23.5793 9.85737 23.5883 10.1036 23.7889 10.1717C23.7267 10.3277 23.8674 10.4102 23.8995 10.5306C23.9448 10.7007 24.0095 10.8388 24.1657 10.9234C24.2429 10.9652 24.2876 11.0458 24.2787 11.1574C24.2735 11.2234 24.2979 11.3005 24.3296 11.36C24.4966 11.6741 24.6158 12.0113 24.7539 12.3395C24.7776 12.3959 24.8148 12.4532 24.8599 12.4904C25.0065 12.6113 25.0186 12.7938 25.0769 12.9604C25.134 13.1237 25.2421 13.2664 25.3275 13.4184C25.3488 13.4562 25.3878 13.4962 25.3859 13.5332C25.3759 13.7272 25.4989 13.8598 25.5963 13.9795C25.827 14.2626 25.9305 14.6102 26.0793 14.9355C26.2418 15.2905 26.3095 15.6868 26.5013 16.0302C26.5807 16.1723 26.6535 16.3265 26.6901 16.4856C26.7146 16.5917 26.6694 16.7013 26.7576 16.8137C26.7929 16.8587 26.702 17.0203 26.6647 17.1273C26.6472 17.1777 26.7081 17.2577 26.5988 17.2779C26.522 17.2921 26.4833 17.3906 26.3767 17.3926C25.9637 17.4004 25.7038 17.2011 25.5509 16.7094C25.5105 16.5793 25.4458 16.4418 25.5447 16.2988C25.5676 16.2657 25.554 16.1538 25.4801 16.1959C25.3398 16.2756 25.3391 16.1887 25.3366 16.0877C25.3341 15.9833 25.3365 15.8788 25.3359 15.7744C25.3349 15.5817 25.2616 15.472 25.147 15.2639C25.0235 15.0396 24.9433 14.7854 24.8639 14.537C24.8402 14.4629 24.8268 14.405 24.7606 14.3649C24.7329 14.3481 24.697 14.2986 24.7026 14.2738C24.7591 14.0217 24.5748 13.8638 24.4922 13.6719C24.4157 13.494 24.1756 13.4311 24.1614 13.192C24.1426 13.1981 24.1231 13.2025 24.1052 13.2108C24.0183 13.2508 23.9753 13.2147 24.0257 13.1303C24.1208 12.971 23.9474 12.8365 24.0012 12.6828C24.0035 12.6763 23.9013 12.6359 23.8561 12.5994C23.813 12.5647 23.7808 12.5145 23.7437 12.4711C23.8652 12.3541 23.7538 12.292 23.6876 12.2311C23.6076 12.1576 23.57 12.0777 23.583 11.9622C23.6047 11.7682 23.5182 11.6116 23.4066 11.4723C23.2541 11.2819 23.0936 11.0989 22.9393 10.9101C22.9012 10.8635 22.8372 10.7952 22.8478 10.7567C22.8908 10.601 22.7938 10.4831 22.7247 10.4129C22.5524 10.238 22.5503 9.94774 22.3396 9.808C22.3188 9.79425 22.3078 9.74068 22.3128 9.70931C22.3313 9.59182 22.2535 9.52828 22.1853 9.48317C22.0918 9.42128 22.0279 9.34389 22.0499 9.23471C22.0725 9.122 21.995 9.03866 22.0164 8.91178C22.0393 8.77656 21.8749 8.64783 21.73 8.61921C21.5772 8.58902 21.5409 8.5465 21.6147 8.38894C21.6449 8.32457 21.6618 8.19211 21.5045 8.20871C21.4761 8.21171 21.44 8.13711 21.4085 8.09741C21.3697 8.0485 21.3407 7.97237 21.2922 7.95362C21.0584 7.86331 20.9958 7.61359 20.931 7.42274C20.8571 7.20505 20.6793 7.06612 20.6308 6.84272C20.6097 6.74547 20.5647 6.6553 20.4362 6.67193C20.3958 6.67716 20.3163 6.63457 20.3108 6.60275C20.2669 6.34724 20.0079 6.25922 19.9345 6.03314C19.8122 5.65594 19.5186 5.42963 19.2761 5.15833C19.1819 5.05288 19.129 4.9465 19.1734 4.79068C19.1893 4.73513 19.1363 4.65901 19.1211 4.59066C19.1017 4.50365 19.0475 4.37255 19.0809 4.33517C19.1732 4.23178 19.1181 4.1306 19.1297 4.02803C19.1508 3.84112 19.0702 3.73376 18.9115 3.77276C18.881 3.78026 18.8534 3.80678 18.8273 3.82844C18.6033 4.01399 18.3121 4.06742 18.0942 4.27208C17.9782 4.38093 17.8161 4.41833 17.6625 4.4553C17.3876 4.52147 17.1162 4.61318 16.8382 4.65295C16.5636 4.69224 16.2742 4.77026 16.0161 4.56891C15.9924 4.55038 15.943 4.52445 15.9448 4.51995C15.998 4.38634 15.9822 4.26955 15.8912 4.15926C15.8788 4.14424 15.898 4.08918 15.9139 4.05963C15.935 4.02043 15.9818 3.9924 15.9921 3.95207C16.0592 3.69091 16.2273 3.63267 16.462 3.58429C16.6748 3.5404 16.8872 3.45132 17.1057 3.40402C17.2196 3.37938 17.3453 3.37592 17.4439 3.31932C17.7926 3.11927 18.1314 2.89936 18.4752 2.68928C18.5963 2.61528 18.6247 2.49029 18.5847 2.37348C18.5511 2.27549 18.5117 2.14929 18.3517 2.16833C18.2723 2.17778 18.1765 2.1204 18.1023 2.06946C17.9512 1.96572 17.804 1.88776 17.6133 1.88603C17.2092 1.88238 17.1191 1.89584 16.6541 2.11159C16.2214 2.31236 15.8607 2.62484 15.4676 2.88662C15.4243 2.91543 15.3727 2.96075 15.3613 3.00843C15.3124 3.2126 15.1477 3.31457 15.0368 3.46371C14.9231 3.61662 14.7912 3.68423 14.6058 3.66004C14.3683 3.62908 14.1326 3.60872 13.9659 3.38949C13.9444 3.36113 13.918 3.32545 13.8883 3.31759C13.5909 3.23898 13.313 3.03507 12.9964 3.09676C12.8469 3.1259 12.7377 3.07304 12.6538 2.99271C12.5464 2.88984 12.4227 2.85653 12.3007 2.79974C12.073 2.69368 11.8538 2.59518 11.6857 2.35922C11.4789 2.06899 11.2088 1.82755 10.9498 1.58507C10.8628 1.5036 10.7254 1.48475 10.6119 1.43491C10.5438 1.40501 10.4763 1.37315 10.4107 1.33762C10.2276 1.23855 10.0476 1.13274 9.86196 1.03983C9.81836 1.01801 9.75664 1.03122 9.70425 1.03768C9.58312 1.05261 9.56541 1.10633 9.62373 1.24042C9.64083 1.27973 9.63706 1.32892 9.64689 1.37254C9.67513 1.49783 9.72729 1.59155 9.86505 1.61098C9.9124 1.61766 9.98496 1.67303 9.99159 1.71585C10.0313 1.97225 10.2378 1.98031 10.3934 1.99468C10.5902 2.01285 10.7558 2.0396 10.9043 2.19939C10.9931 2.29485 11.1354 2.33039 11.2463 2.40528C11.5063 2.5808 11.5524 2.7241 11.4406 2.98919C11.4025 3.07954 11.3904 3.1868 11.2766 3.22703C11.1412 3.27488 11.0124 3.34569 10.8635 3.30559C10.7354 3.27106 10.6023 3.24958 10.4807 3.19736C10.3752 3.15208 10.2663 3.12135 10.1706 3.03053C10.0435 2.91003 9.88228 2.82344 9.72464 2.74955C9.54058 2.66329 9.35803 2.5959 9.24787 2.38925C9.20874 2.31584 9.08764 2.29785 9.03022 2.22923C8.96551 2.1519 8.78564 2.1331 8.87985 1.95128C8.88638 1.93867 8.8625 1.90286 8.84678 1.88343C8.8306 1.86344 8.80865 1.84703 8.78651 1.83469C8.64826 1.75768 8.49582 1.60384 8.37419 1.62784C8.24688 1.65296 8.14194 1.84313 8.04015 1.97285C7.94323 2.09638 7.86213 2.23432 7.77593 2.36732C7.74775 2.41079 7.73401 2.48788 7.69899 2.49976C7.45602 2.58218 7.44166 2.81207 7.39743 3.01974C7.34484 3.26663 7.12358 3.48197 6.89041 3.48478C6.61514 3.48809 6.35813 3.55828 6.09485 3.64665C5.70243 3.77837 5.30792 3.90168 4.94935 4.11722C4.67605 4.28151 4.39355 4.41746 4.10484 4.5435C4.04436 4.5699 3.99505 4.62455 3.93813 4.66184C3.79087 4.75833 3.67468 4.92153 3.47686 4.9112C3.46117 4.91038 3.43975 4.91412 3.42992 4.92502C3.34985 5.01388 3.28153 5.16425 3.19102 5.18118C3.06109 5.20549 2.99764 5.28848 2.91267 5.36291C2.74823 5.50692 2.57828 5.64368 2.41394 5.78781C2.3526 5.84161 2.28182 5.89772 2.2486 5.97031C2.1979 6.08111 2.02802 6.17767 2.09972 6.28904C2.16938 6.39725 2.32737 6.4785 2.45552 6.49598C2.66139 6.52406 2.87144 6.51722 3.07876 6.56057C3.57619 6.66457 4.08973 6.63941 4.58418 6.78464C4.77114 6.83955 4.9747 6.84032 5.17112 6.84493C5.56258 6.85413 5.93703 6.97315 6.32056 7.03214C6.40366 7.04493 6.48761 7.07819 6.56892 7.07133C6.6969 7.06052 6.82223 7.06421 6.94998 7.07298C7.32263 7.09856 7.69651 7.10483 8.06878 7.13489C8.38231 7.16021 8.69486 7.24107 9.00665 7.23426C9.20256 7.22998 9.40161 7.28717 9.60767 7.20847C9.69909 7.17355 9.84403 7.30171 9.96527 7.35426C10.0183 7.37726 10.0738 7.41642 10.1266 7.41368C10.3682 7.40115 10.5962 7.45624 10.8278 7.52343C10.9328 7.5539 11.0332 7.57616 11.1327 7.63128C11.2181 7.67862 11.3249 7.69296 11.4235 7.69922C11.6097 7.71107 11.7885 7.73734 11.9734 7.78301C12.2186 7.84361 12.4642 7.87311 12.6738 8.03834C12.6855 8.04762 12.7125 8.05059 12.7237 8.04256C12.9135 7.90644 13.102 8.04771 13.2908 8.04778C13.4604 8.04783 13.6298 8.09396 13.7996 8.09727C13.9634 8.10046 14.1105 8.16282 14.2646 8.19696C14.6467 8.28156 15.0082 8.42602 15.3754 8.55579C15.3913 8.56143 15.4139 8.54965 15.4277 8.55752C15.7397 8.7352 16.0514 8.91325 16.362 9.09381C16.7522 9.32071 17.1261 9.58001 17.584 9.64416C17.8281 9.67836 18.0774 10.0701 18.0645 10.3377C18.0553 10.5276 17.8291 10.7686 17.6405 10.7767C17.4639 10.7843 17.2867 10.7793 17.1098 10.7774C17.0769 10.7771 17.0368 10.776 17.0124 10.7569C16.8621 10.6396 16.7163 10.5156 16.5667 10.3971C16.5275 10.3661 16.4812 10.3445 16.4363 10.323C16.2456 10.2316 16.0506 10.151 15.9059 9.97515C15.8572 9.91601 15.7865 9.84159 15.7232 9.8385C15.3764 9.8216 15.161 9.43945 14.8025 9.46802C14.6403 9.30281 14.4298 9.332 14.233 9.2898C13.9853 9.23669 13.7479 9.12887 13.5052 9.04784C13.4498 9.02932 13.3802 8.99659 13.3348 9.01662C13.0076 9.161 12.7003 9.02618 12.3987 8.93217C12.1691 8.86058 11.937 8.82593 11.7067 8.77314C11.3633 8.69439 11.0041 8.71084 10.6724 8.5705C10.6495 8.56081 10.6218 8.55326 10.5984 8.55767C10.2724 8.61918 9.99519 8.41544 9.68923 8.36608C9.28482 8.30085 8.8838 8.19452 8.47395 8.32688C8.43339 8.33998 8.37948 8.34367 8.34309 8.32553C8.26523 8.28673 8.20856 8.24129 8.11223 8.31378C8.0658 8.34872 7.95796 8.28095 7.87682 8.27344C7.74846 8.26154 7.61779 8.27186 7.49069 8.25278C7.37827 8.2359 7.27098 8.18069 7.15859 8.16214C6.98177 8.13297 6.80274 8.10612 6.62435 8.10378C6.27158 8.09914 5.92286 8.01602 5.57581 8.01627C5.38078 8.0164 5.23034 8.00387 5.08197 7.87618C5.05505 7.85301 4.99412 7.86409 4.95206 7.87435C4.72722 7.9292 4.50254 7.8768 4.27945 7.86675C4.05419 7.85659 3.82775 7.81105 3.60747 7.75533C3.339 7.68741 3.07785 7.56918 2.79714 7.59146C2.55224 7.61091 2.3128 7.5781 2.10716 7.45294C1.9443 7.35382 1.82962 7.52757 1.69066 7.4741C1.69152 7.49414 1.69389 7.51427 1.6929 7.53421C1.69096 7.5734 1.69767 7.64082 1.68251 7.6473C1.50014 7.72533 1.58876 7.80249 1.65727 7.91799C1.71617 8.01728 1.72838 8.15335 1.7449 8.27569C1.7792 8.52972 1.98878 8.67529 2.06864 8.90147C2.10385 9.0012 2.13471 9.10894 2.24766 9.16368C2.2975 9.18784 2.34074 9.27517 2.35018 9.33999C2.40327 9.70452 2.65748 9.89264 2.8995 10.0964C2.97309 10.1584 3.03215 10.2405 3.0966 10.3146C3.14757 10.3732 3.18625 10.4604 3.24852 10.4884C3.42049 10.5655 3.46942 10.8118 3.67202 10.8341C3.85875 10.8546 3.96027 11.0133 4.09136 11.122C4.21309 11.2229 4.3107 11.4084 4.44119 11.4362C4.78021 11.5084 4.93308 11.8377 5.20445 11.9959C5.29723 12.05 5.37709 12.127 5.47926 12.1786C5.65073 12.2653 5.81085 12.3869 5.95851 12.5165C6.16555 12.6982 6.37287 12.8855 6.54816 13.1004C6.63825 13.2108 6.73014 13.2852 6.84186 13.3636C6.95884 13.4457 7.0497 13.6165 7.01874 13.7858C6.99 13.9431 6.8436 13.9754 6.71552 14.0313C6.5259 14.1142 6.35743 14.0548 6.18178 14.004L6.01604 13.8547C5.97854 13.805 5.94377 13.7524 5.90293 13.706C5.8311 13.6244 5.75742 13.5444 5.68064 13.4682C5.65095 13.4388 5.61134 13.4041 5.57509 13.4025C5.49947 13.3993 5.48561 13.3994 5.45924 13.3431C5.41836 13.2556 5.38824 13.1828 5.26735 13.1583C5.17306 13.1392 5.0984 13.0064 5.0158 12.9232C4.87129 12.7777 4.6662 12.7913 4.54406 12.9567C4.3626 13.2024 4.17873 13.4404 3.96698 13.6629C3.77924 13.8601 3.56857 14.0208 3.38208 14.2129C3.26932 14.329 3.08949 14.4065 3.09471 14.6242C3.09502 14.6373 3.07249 14.6526 3.05868 14.6643C2.7423 14.9313 2.55793 15.3154 2.31335 15.6454C2.21414 15.7792 2.06064 15.8929 2.0757 16.1112C2.07988 16.1719 1.99659 16.2416 1.949 16.3033C1.93116 16.3264 1.88548 16.3331 1.87855 16.3563C1.83724 16.4944 1.73897 16.5982 1.684 16.7214C1.59057 16.9308 1.47072 17.1069 1.32468 17.2757C1.22603 17.3897 1.15155 17.5387 1.09926 17.6856C1.01657 17.9179 0.821994 18.0058 0.645514 18.0898C0.569471 18.126 0.423269 18.0302 0.325687 17.9654C0.237837 17.907 0.172286 17.8095 0.0979821 17.7282C0.0249852 17.6483 -0.0826378 17.5679 0.103204 17.4899C0.120042 17.4828 0.117878 17.4235 0.124474 17.3885C0.124861 17.3865 0.229693 17 0.230681 16.9987C0.390926 16.7946 0.551303 16.5906 0.711404 16.3864C0.795668 16.2789 0.924667 16.1898 0.838557 16.0127C0.830573 15.9963 0.853567 15.9399 0.868584 15.9367C1.03699 15.9008 1.01838 15.7433 1.06662 15.6349C1.09629 15.6505 1.11269 15.6519 1.12908 15.6533C1.11269 15.6424 1.09629 15.6316 1.07989 15.6207ZM22.2576 9.43953C22.274 9.44092 22.2904 9.44231 22.3068 9.4437C22.2904 9.43282 22.274 9.42193 22.2576 9.38256C22.2293 9.37496 22.201 9.36737 22.1727 9.35977C22.1701 9.37218 22.1675 9.3846 22.1649 9.397C22.1958 9.40168 22.2267 9.40636 22.2576 9.43953ZM0.9472 8.67045C0.956047 8.62967 0.96734 8.58924 0.972332 8.54793C0.973946 8.53457 0.959005 8.51891 0.951635 8.5043C0.94131 8.52336 0.926062 8.54128 0.921909 8.56178C0.916721 8.58739 0.920663 8.61514 0.9472 8.67045Z" fill="#93a1a1"/>
</svg>
